<svg xmlns="http://www.w3.org/2000/svg" width="18" height="20" viewBox="0 0 18 20"><g fill="none" fill-rule="evenodd"><path d="M-1 0h20v20H-1z"/><g fill="#0C0C0C" transform="translate(-.34 -.17)"><circle cx="14.34" cy="18.17" r="2"/><circle cx="6.34" cy="18.17" r="2"/><path fill-rule="nonzero" d="M3.44 5.883l1.48 6.487c.106.468.522.8 1.003.8h8.435c.48 0 .896-.332 1.003-.8l.912-3.988a2.043 2.043 0 00-1.992-2.499H3.44zm0 0H2.182a1 1 0 010-2h12.099a4.043 4.043 0 013.942 4.944l-.912 3.989a3.029 3.029 0 01-2.953 2.354H5.923a3.029 3.029 0 01-2.954-2.356L.365 1.392a1 1 0 011.95-.444L3.44 5.883z"/></g></g></svg>